<?xml version="1.0" encoding="UTF-8"?><svg id="a" xmlns="http://www.w3.org/2000/svg" viewBox="0 0 72.23 71.84"><defs><style>.b{fill:#4c4e50;}</style></defs><g><path class="b" d="M70.19,69.8c-2.02,2.02-4.66,2.64-5.9,1.4l-2.32-2.32,7.22-7.38,2.41,2.4c1.24,1.24,.61,3.88-1.4,5.9Z"/><path class="b" d="M67.14,59.19l-14.98-14.98c3-4.51,4.76-9.92,4.76-15.74C56.92,12.74,44.18,0,28.46,0S-.24,12.74,0,28.46c.24,16.01,12.93,28.68,28.46,28.46,6.16-.09,11.85-1.98,16.51-5.3l14.96,14.96,7.22-7.38Zm-18.67-30.34c0,11.05-8.96,20.01-20.01,20.01S8.45,39.9,8.45,28.85,17.41,8.84,28.46,8.84s20.01,8.96,20.01,20.01Z"/></g><path class="b" d="M28.6,47.32c-10.21,0-18.52-8.31-18.52-18.52S18.39,10.29,28.6,10.29s18.52,8.31,18.52,18.52-8.31,18.52-18.52,18.52Zm0-36.01c-9.65,0-17.5,7.85-17.5,17.5s7.85,17.5,17.5,17.5,17.5-7.85,17.5-17.5-7.85-17.5-17.5-17.5Z"/></svg>